<svg width="18" height="20" viewBox="0 0 18 20" fill="none" xmlns="http://www.w3.org/2000/svg">
<path d="M3.82812 5.50903C3.82812 3.05622 5.97646 1 8.71326 1C11.4501 1 13.5984 3.05622 13.5984 5.50903V6.95917C13.5984 8.16554 13.085 9.26701 12.2359 10.0827C11.3504 10.9333 10.1031 11.4682 8.71326 11.4682C7.32338 11.4682 6.07612 10.9333 5.19063 10.0827C4.34153 9.26701 3.82812 8.16554 3.82812 6.95917V5.50903Z" stroke="#98AAB3" stroke-width="1.5" stroke-linecap="round" stroke-linejoin="round"/>
<path d="M6 11C4.5 12 3.06001 12.9291 2.49093 13.4536C1.77135 14.1168 1.28074 14.914 1 15.8022C1.03115 15.8793 1.0805 15.9875 1.15487 16.1175C1.3242 16.4137 1.62507 16.8267 2.14231 17.2472C3.17067 18.0833 5.11151 18.9938 8.71352 18.9938C12.3155 18.9938 14.2564 18.0833 15.2847 17.2472C15.802 16.8267 16.1028 16.4137 16.2722 16.1175C16.3465 15.9875 16.3959 15.8793 16.427 15.8022C16.1463 14.914 15.6557 14.1168 14.9361 13.4536C14.367 12.9291 11.5 11.5 11 11" stroke="#98AAB3" stroke-width="1.5" stroke-linecap="round" stroke-linejoin="round"/>
</svg>
